<mxfile host="app.diagrams.net" modified="2022-04-15T08:13:16.717Z" agent="5.0 (Macintosh; Intel Mac OS X 10_15_7) AppleWebKit/537.36 (KHTML, like Gecko) Chrome/100.0.4896.88 Safari/537.36" etag="aqO3MUDJ6qAGtBTpOXbK" version="17.4.4" type="github" pages="2">
  <diagram id="MJPNFhSHubLkFkieIWtd" name="Locker Manager (old)">
    <mxGraphModel dx="665" dy="455" grid="1" gridSize="10" guides="1" tooltips="1" connect="1" arrows="1" fold="1" page="1" pageScale="1" pageWidth="2500" pageHeight="2500" math="0" shadow="0">
      <root>
        <mxCell id="0" />
        <mxCell id="1" parent="0" />
        <mxCell id="4zOhWpi7Tp3pZV_hhRQo-51" style="edgeStyle=orthogonalEdgeStyle;rounded=0;orthogonalLoop=1;jettySize=auto;html=1;exitX=0.5;exitY=1;exitDx=0;exitDy=0;exitPerimeter=0;entryX=0.5;entryY=0;entryDx=0;entryDy=0;fontColor=#000000;" parent="1" source="4zOhWpi7Tp3pZV_hhRQo-1" target="4zOhWpi7Tp3pZV_hhRQo-46" edge="1">
          <mxGeometry relative="1" as="geometry" />
        </mxCell>
        <mxCell id="4zOhWpi7Tp3pZV_hhRQo-52" value="on RoomTowel remove" style="edgeLabel;html=1;align=center;verticalAlign=middle;resizable=0;points=[];fontColor=#000000;" parent="4zOhWpi7Tp3pZV_hhRQo-51" vertex="1" connectable="0">
          <mxGeometry x="-0.8247" y="1" relative="1" as="geometry">
            <mxPoint as="offset" />
          </mxGeometry>
        </mxCell>
        <mxCell id="4zOhWpi7Tp3pZV_hhRQo-69" style="edgeStyle=orthogonalEdgeStyle;rounded=0;orthogonalLoop=1;jettySize=auto;html=1;exitX=1;exitY=0.5;exitDx=0;exitDy=0;exitPerimeter=0;entryX=0.5;entryY=0;entryDx=0;entryDy=0;fontColor=#000000;" parent="1" source="4zOhWpi7Tp3pZV_hhRQo-1" target="4zOhWpi7Tp3pZV_hhRQo-55" edge="1">
          <mxGeometry relative="1" as="geometry" />
        </mxCell>
        <mxCell id="4zOhWpi7Tp3pZV_hhRQo-71" value="on Housekeeping create" style="edgeLabel;html=1;align=center;verticalAlign=middle;resizable=0;points=[];fontColor=#000000;" parent="4zOhWpi7Tp3pZV_hhRQo-69" vertex="1" connectable="0">
          <mxGeometry x="-0.8334" relative="1" as="geometry">
            <mxPoint y="1" as="offset" />
          </mxGeometry>
        </mxCell>
        <mxCell id="4zOhWpi7Tp3pZV_hhRQo-70" style="edgeStyle=orthogonalEdgeStyle;rounded=0;orthogonalLoop=1;jettySize=auto;html=1;exitX=1;exitY=1;exitDx=0;exitDy=-15;exitPerimeter=0;entryX=0.5;entryY=0;entryDx=0;entryDy=0;fontColor=#000000;" parent="1" source="4zOhWpi7Tp3pZV_hhRQo-1" target="4zOhWpi7Tp3pZV_hhRQo-61" edge="1">
          <mxGeometry relative="1" as="geometry" />
        </mxCell>
        <mxCell id="4zOhWpi7Tp3pZV_hhRQo-72" value="on Housekeeping remove" style="edgeLabel;html=1;align=center;verticalAlign=middle;resizable=0;points=[];fontColor=#000000;" parent="4zOhWpi7Tp3pZV_hhRQo-70" vertex="1" connectable="0">
          <mxGeometry x="-0.8216" y="3" relative="1" as="geometry">
            <mxPoint y="1" as="offset" />
          </mxGeometry>
        </mxCell>
        <mxCell id="4zOhWpi7Tp3pZV_hhRQo-1" value="Parse" style="shape=cylinder3;whiteSpace=wrap;html=1;boundedLbl=1;backgroundOutline=1;size=15;" parent="1" vertex="1">
          <mxGeometry x="740" y="30" width="90" height="90" as="geometry" />
        </mxCell>
        <mxCell id="4zOhWpi7Tp3pZV_hhRQo-2" value="is original?" style="rhombus;whiteSpace=wrap;html=1;" parent="1" vertex="1">
          <mxGeometry x="120" y="260" width="160" height="90" as="geometry" />
        </mxCell>
        <mxCell id="4zOhWpi7Tp3pZV_hhRQo-3" value="" style="endArrow=classic;html=1;rounded=0;exitX=0.5;exitY=1;exitDx=0;exitDy=0;exitPerimeter=0;entryX=0.5;entryY=0;entryDx=0;entryDy=0;" parent="1" source="4zOhWpi7Tp3pZV_hhRQo-1" target="4zOhWpi7Tp3pZV_hhRQo-2" edge="1">
          <mxGeometry width="50" height="50" relative="1" as="geometry">
            <mxPoint x="460" y="330" as="sourcePoint" />
            <mxPoint x="510" y="280" as="targetPoint" />
            <Array as="points">
              <mxPoint x="200" y="120" />
            </Array>
          </mxGeometry>
        </mxCell>
        <mxCell id="4zOhWpi7Tp3pZV_hhRQo-4" value="on RoomTowel create" style="edgeLabel;html=1;align=center;verticalAlign=middle;resizable=0;points=[];" parent="4zOhWpi7Tp3pZV_hhRQo-3" vertex="1" connectable="0">
          <mxGeometry x="-0.3161" relative="1" as="geometry">
            <mxPoint as="offset" />
          </mxGeometry>
        </mxCell>
        <mxCell id="4zOhWpi7Tp3pZV_hhRQo-5" value="Locker Manager ???&lt;br&gt;(need update locker in DB and send message to housekeeping for physical updating of locker and register cards for selected locker)&amp;nbsp;" style="ellipse;whiteSpace=wrap;html=1;" parent="1" vertex="1">
          <mxGeometry x="350" y="1100" width="230" height="230" as="geometry" />
        </mxCell>
        <mxCell id="4zOhWpi7Tp3pZV_hhRQo-12" style="edgeStyle=orthogonalEdgeStyle;rounded=0;orthogonalLoop=1;jettySize=auto;html=1;exitX=0.5;exitY=1;exitDx=0;exitDy=0;entryX=0.5;entryY=0;entryDx=0;entryDy=0;" parent="1" source="4zOhWpi7Tp3pZV_hhRQo-6" target="4zOhWpi7Tp3pZV_hhRQo-14" edge="1">
          <mxGeometry relative="1" as="geometry">
            <mxPoint x="200" y="510" as="targetPoint" />
          </mxGeometry>
        </mxCell>
        <mxCell id="4zOhWpi7Tp3pZV_hhRQo-6" value="find all guest lockers" style="rounded=0;whiteSpace=wrap;html=1;" parent="1" vertex="1">
          <mxGeometry x="140" y="480" width="120" height="60" as="geometry" />
        </mxCell>
        <mxCell id="4zOhWpi7Tp3pZV_hhRQo-24" style="edgeStyle=orthogonalEdgeStyle;rounded=0;orthogonalLoop=1;jettySize=auto;html=1;exitX=0.5;exitY=1;exitDx=0;exitDy=0;entryX=0.5;entryY=0;entryDx=0;entryDy=0;fontColor=#000000;" parent="1" source="4zOhWpi7Tp3pZV_hhRQo-7" target="4zOhWpi7Tp3pZV_hhRQo-23" edge="1">
          <mxGeometry relative="1" as="geometry" />
        </mxCell>
        <mxCell id="4zOhWpi7Tp3pZV_hhRQo-7" value="&lt;span&gt;find all guest lockers&lt;/span&gt;" style="rounded=0;whiteSpace=wrap;html=1;" parent="1" vertex="1">
          <mxGeometry x="660" y="390" width="120" height="60" as="geometry" />
        </mxCell>
        <mxCell id="4zOhWpi7Tp3pZV_hhRQo-8" value="is guest creating?" style="endArrow=classic;html=1;rounded=0;exitX=0.5;exitY=1;exitDx=0;exitDy=0;entryX=0.5;entryY=0;entryDx=0;entryDy=0;fillColor=#d5e8d4;strokeColor=#82b366;" parent="1" source="4zOhWpi7Tp3pZV_hhRQo-2" target="4zOhWpi7Tp3pZV_hhRQo-21" edge="1">
          <mxGeometry width="50" height="50" relative="1" as="geometry">
            <mxPoint x="460" y="440" as="sourcePoint" />
            <mxPoint x="510" y="390" as="targetPoint" />
          </mxGeometry>
        </mxCell>
        <mxCell id="4zOhWpi7Tp3pZV_hhRQo-9" value="is guest updating?" style="endArrow=classic;html=1;rounded=0;exitX=1;exitY=0.5;exitDx=0;exitDy=0;entryX=0.5;entryY=0;entryDx=0;entryDy=0;fillColor=#f8cecc;strokeColor=#b85450;" parent="1" source="4zOhWpi7Tp3pZV_hhRQo-2" target="4zOhWpi7Tp3pZV_hhRQo-7" edge="1">
          <mxGeometry width="50" height="50" relative="1" as="geometry">
            <mxPoint x="460" y="440" as="sourcePoint" />
            <mxPoint x="510" y="390" as="targetPoint" />
            <Array as="points">
              <mxPoint x="630" y="305" />
              <mxPoint x="720" y="305" />
            </Array>
          </mxGeometry>
        </mxCell>
        <mxCell id="4zOhWpi7Tp3pZV_hhRQo-19" style="edgeStyle=orthogonalEdgeStyle;rounded=0;orthogonalLoop=1;jettySize=auto;html=1;exitX=0.5;exitY=1;exitDx=0;exitDy=0;entryX=0.5;entryY=0;entryDx=0;entryDy=0;fontColor=#7F00FF;" parent="1" source="4zOhWpi7Tp3pZV_hhRQo-14" target="4zOhWpi7Tp3pZV_hhRQo-15" edge="1">
          <mxGeometry relative="1" as="geometry" />
        </mxCell>
        <mxCell id="4zOhWpi7Tp3pZV_hhRQo-20" style="edgeStyle=orthogonalEdgeStyle;rounded=0;orthogonalLoop=1;jettySize=auto;html=1;exitX=1;exitY=0.5;exitDx=0;exitDy=0;entryX=0.5;entryY=0;entryDx=0;entryDy=0;fontColor=#7F00FF;" parent="1" source="4zOhWpi7Tp3pZV_hhRQo-14" target="4zOhWpi7Tp3pZV_hhRQo-5" edge="1">
          <mxGeometry relative="1" as="geometry" />
        </mxCell>
        <mxCell id="4zOhWpi7Tp3pZV_hhRQo-14" value="i = 0; i &amp;lt; lockers.length; i++" style="shape=hexagon;perimeter=hexagonPerimeter2;whiteSpace=wrap;html=1;fixedSize=1;" parent="1" vertex="1">
          <mxGeometry x="114.5" y="570" width="171" height="80" as="geometry" />
        </mxCell>
        <mxCell id="4zOhWpi7Tp3pZV_hhRQo-18" style="edgeStyle=orthogonalEdgeStyle;rounded=0;orthogonalLoop=1;jettySize=auto;html=1;exitX=0;exitY=0.5;exitDx=0;exitDy=0;entryX=0;entryY=0.5;entryDx=0;entryDy=0;" parent="1" source="4zOhWpi7Tp3pZV_hhRQo-15" target="4zOhWpi7Tp3pZV_hhRQo-14" edge="1">
          <mxGeometry relative="1" as="geometry" />
        </mxCell>
        <mxCell id="4zOhWpi7Tp3pZV_hhRQo-15" value="send message&lt;br&gt;&lt;font color=&quot;#0000ff&quot;&gt;&amp;lt;HOTEL_BASE_TOPIC&amp;gt;/&amp;lt;LOCKER_ID&amp;gt;/card/add&lt;/font&gt;&lt;br&gt;&lt;font color=&quot;#7f00ff&quot;&gt;{ cards =&amp;gt; guest cards, roomId =&amp;gt; guest roomId, cardType =&amp;gt; &#39;guest&#39;, lang =&amp;gt; guest lang, towelLimit =&amp;gt; guest towel limit }&lt;/font&gt;" style="rounded=0;whiteSpace=wrap;html=1;" parent="1" vertex="1">
          <mxGeometry x="40" y="720" width="320" height="130" as="geometry" />
        </mxCell>
        <mxCell id="4zOhWpi7Tp3pZV_hhRQo-22" style="edgeStyle=orthogonalEdgeStyle;rounded=0;orthogonalLoop=1;jettySize=auto;html=1;exitX=0.5;exitY=1;exitDx=0;exitDy=0;entryX=0.5;entryY=0;entryDx=0;entryDy=0;fontColor=#000000;" parent="1" source="4zOhWpi7Tp3pZV_hhRQo-21" target="4zOhWpi7Tp3pZV_hhRQo-6" edge="1">
          <mxGeometry relative="1" as="geometry" />
        </mxCell>
        <mxCell id="4zOhWpi7Tp3pZV_hhRQo-21" value="&lt;font color=&quot;#000000&quot;&gt;update guest room&lt;/font&gt;&lt;br&gt;isOccupied =&amp;gt; true&lt;br&gt;lastCheckIn =&amp;gt; current date" style="rounded=0;whiteSpace=wrap;html=1;fontColor=#7F00FF;" parent="1" vertex="1">
          <mxGeometry x="140" y="390" width="120" height="60" as="geometry" />
        </mxCell>
        <mxCell id="4zOhWpi7Tp3pZV_hhRQo-31" style="edgeStyle=orthogonalEdgeStyle;rounded=0;orthogonalLoop=1;jettySize=auto;html=1;exitX=1;exitY=0.5;exitDx=0;exitDy=0;entryX=0.5;entryY=0;entryDx=0;entryDy=0;fontColor=#000000;fillColor=#f8cecc;strokeColor=#b85450;" parent="1" source="4zOhWpi7Tp3pZV_hhRQo-23" target="4zOhWpi7Tp3pZV_hhRQo-26" edge="1">
          <mxGeometry relative="1" as="geometry" />
        </mxCell>
        <mxCell id="4zOhWpi7Tp3pZV_hhRQo-38" style="edgeStyle=orthogonalEdgeStyle;rounded=0;orthogonalLoop=1;jettySize=auto;html=1;exitX=0.5;exitY=1;exitDx=0;exitDy=0;entryX=0.5;entryY=0;entryDx=0;entryDy=0;fontColor=#000000;fillColor=#d5e8d4;strokeColor=#82b366;" parent="1" source="4zOhWpi7Tp3pZV_hhRQo-23" target="4zOhWpi7Tp3pZV_hhRQo-33" edge="1">
          <mxGeometry relative="1" as="geometry" />
        </mxCell>
        <mxCell id="4zOhWpi7Tp3pZV_hhRQo-23" value="is card adding" style="rhombus;whiteSpace=wrap;html=1;fontColor=#000000;" parent="1" vertex="1">
          <mxGeometry x="645" y="480" width="150" height="80" as="geometry" />
        </mxCell>
        <mxCell id="4zOhWpi7Tp3pZV_hhRQo-25" style="edgeStyle=orthogonalEdgeStyle;rounded=0;orthogonalLoop=1;jettySize=auto;html=1;exitX=0.5;exitY=1;exitDx=0;exitDy=0;entryX=0.5;entryY=0;entryDx=0;entryDy=0;" parent="1" source="4zOhWpi7Tp3pZV_hhRQo-26" target="4zOhWpi7Tp3pZV_hhRQo-28" edge="1">
          <mxGeometry relative="1" as="geometry">
            <mxPoint x="1100" y="630" as="targetPoint" />
          </mxGeometry>
        </mxCell>
        <mxCell id="4zOhWpi7Tp3pZV_hhRQo-26" value="find all guest lockers" style="rounded=0;whiteSpace=wrap;html=1;" parent="1" vertex="1">
          <mxGeometry x="1040" y="600" width="120" height="60" as="geometry" />
        </mxCell>
        <mxCell id="4zOhWpi7Tp3pZV_hhRQo-27" style="edgeStyle=orthogonalEdgeStyle;rounded=0;orthogonalLoop=1;jettySize=auto;html=1;exitX=0.5;exitY=1;exitDx=0;exitDy=0;entryX=0.5;entryY=0;entryDx=0;entryDy=0;fontColor=#7F00FF;" parent="1" source="4zOhWpi7Tp3pZV_hhRQo-28" target="4zOhWpi7Tp3pZV_hhRQo-30" edge="1">
          <mxGeometry relative="1" as="geometry" />
        </mxCell>
        <mxCell id="4zOhWpi7Tp3pZV_hhRQo-44" style="edgeStyle=orthogonalEdgeStyle;rounded=0;orthogonalLoop=1;jettySize=auto;html=1;exitX=1;exitY=0.5;exitDx=0;exitDy=0;entryX=1;entryY=0.5;entryDx=0;entryDy=0;fontColor=#000000;" parent="1" source="4zOhWpi7Tp3pZV_hhRQo-28" target="4zOhWpi7Tp3pZV_hhRQo-5" edge="1">
          <mxGeometry relative="1" as="geometry">
            <Array as="points">
              <mxPoint x="1280" y="730" />
              <mxPoint x="1280" y="1215" />
            </Array>
          </mxGeometry>
        </mxCell>
        <mxCell id="4zOhWpi7Tp3pZV_hhRQo-28" value="i = 0; i &amp;lt; lockers.length; i++" style="shape=hexagon;perimeter=hexagonPerimeter2;whiteSpace=wrap;html=1;fixedSize=1;" parent="1" vertex="1">
          <mxGeometry x="1014.5" y="690" width="171" height="80" as="geometry" />
        </mxCell>
        <mxCell id="4zOhWpi7Tp3pZV_hhRQo-29" style="edgeStyle=orthogonalEdgeStyle;rounded=0;orthogonalLoop=1;jettySize=auto;html=1;exitX=0;exitY=0.5;exitDx=0;exitDy=0;entryX=0;entryY=0.5;entryDx=0;entryDy=0;" parent="1" source="4zOhWpi7Tp3pZV_hhRQo-30" target="4zOhWpi7Tp3pZV_hhRQo-28" edge="1">
          <mxGeometry relative="1" as="geometry" />
        </mxCell>
        <mxCell id="4zOhWpi7Tp3pZV_hhRQo-30" value="send message&lt;br&gt;&lt;font color=&quot;#0000ff&quot;&gt;&amp;lt;HOTEL_BASE_TOPIC&amp;gt;/&amp;lt;LOCKER_ID&amp;gt;/card/remove&lt;/font&gt;&lt;br&gt;&lt;font color=&quot;#7f00ff&quot;&gt;{ cards =&amp;gt; guest cards to remove }&lt;/font&gt;" style="rounded=0;whiteSpace=wrap;html=1;" parent="1" vertex="1">
          <mxGeometry x="940" y="840" width="320" height="130" as="geometry" />
        </mxCell>
        <mxCell id="4zOhWpi7Tp3pZV_hhRQo-32" style="edgeStyle=orthogonalEdgeStyle;rounded=0;orthogonalLoop=1;jettySize=auto;html=1;exitX=0.5;exitY=1;exitDx=0;exitDy=0;entryX=0.5;entryY=0;entryDx=0;entryDy=0;" parent="1" source="4zOhWpi7Tp3pZV_hhRQo-33" target="4zOhWpi7Tp3pZV_hhRQo-35" edge="1">
          <mxGeometry relative="1" as="geometry">
            <mxPoint x="720" y="630" as="targetPoint" />
          </mxGeometry>
        </mxCell>
        <mxCell id="4zOhWpi7Tp3pZV_hhRQo-33" value="find all guest lockers" style="rounded=0;whiteSpace=wrap;html=1;" parent="1" vertex="1">
          <mxGeometry x="660" y="600" width="120" height="60" as="geometry" />
        </mxCell>
        <mxCell id="4zOhWpi7Tp3pZV_hhRQo-34" style="edgeStyle=orthogonalEdgeStyle;rounded=0;orthogonalLoop=1;jettySize=auto;html=1;exitX=0.5;exitY=1;exitDx=0;exitDy=0;entryX=0.5;entryY=0;entryDx=0;entryDy=0;fontColor=#7F00FF;" parent="1" source="4zOhWpi7Tp3pZV_hhRQo-35" target="4zOhWpi7Tp3pZV_hhRQo-37" edge="1">
          <mxGeometry relative="1" as="geometry" />
        </mxCell>
        <mxCell id="4zOhWpi7Tp3pZV_hhRQo-42" style="edgeStyle=orthogonalEdgeStyle;rounded=0;orthogonalLoop=1;jettySize=auto;html=1;exitX=1;exitY=0.5;exitDx=0;exitDy=0;entryX=1;entryY=0.5;entryDx=0;entryDy=0;fontColor=#000000;" parent="1" source="4zOhWpi7Tp3pZV_hhRQo-35" target="4zOhWpi7Tp3pZV_hhRQo-5" edge="1">
          <mxGeometry relative="1" as="geometry">
            <Array as="points">
              <mxPoint x="890" y="730" />
              <mxPoint x="890" y="1215" />
            </Array>
          </mxGeometry>
        </mxCell>
        <mxCell id="4zOhWpi7Tp3pZV_hhRQo-35" value="i = 0; i &amp;lt; lockers.length; i++" style="shape=hexagon;perimeter=hexagonPerimeter2;whiteSpace=wrap;html=1;fixedSize=1;" parent="1" vertex="1">
          <mxGeometry x="634.5" y="690" width="171" height="80" as="geometry" />
        </mxCell>
        <mxCell id="4zOhWpi7Tp3pZV_hhRQo-36" style="edgeStyle=orthogonalEdgeStyle;rounded=0;orthogonalLoop=1;jettySize=auto;html=1;exitX=0;exitY=0.5;exitDx=0;exitDy=0;entryX=0;entryY=0.5;entryDx=0;entryDy=0;" parent="1" source="4zOhWpi7Tp3pZV_hhRQo-37" target="4zOhWpi7Tp3pZV_hhRQo-35" edge="1">
          <mxGeometry relative="1" as="geometry" />
        </mxCell>
        <mxCell id="4zOhWpi7Tp3pZV_hhRQo-37" value="send message&lt;br&gt;&lt;font color=&quot;#0000ff&quot;&gt;&amp;lt;HOTEL_BASE_TOPIC&amp;gt;/&amp;lt;LOCKER_ID&amp;gt;/card/add&lt;/font&gt;&lt;br&gt;&lt;font color=&quot;#7f00ff&quot;&gt;{ cards =&amp;gt; guest cards to add, roomId =&amp;gt; guest roomId, cardType =&amp;gt; &#39;guest&#39;, lang =&amp;gt; guest lang, towelLimit =&amp;gt; guest towel limit }&lt;/font&gt;" style="rounded=0;whiteSpace=wrap;html=1;" parent="1" vertex="1">
          <mxGeometry x="560" y="840" width="320" height="130" as="geometry" />
        </mxCell>
        <mxCell id="4zOhWpi7Tp3pZV_hhRQo-45" style="edgeStyle=orthogonalEdgeStyle;rounded=0;orthogonalLoop=1;jettySize=auto;html=1;exitX=0.5;exitY=1;exitDx=0;exitDy=0;entryX=0.5;entryY=0;entryDx=0;entryDy=0;" parent="1" source="4zOhWpi7Tp3pZV_hhRQo-46" target="4zOhWpi7Tp3pZV_hhRQo-48" edge="1">
          <mxGeometry relative="1" as="geometry">
            <mxPoint x="1490" y="540" as="targetPoint" />
          </mxGeometry>
        </mxCell>
        <mxCell id="4zOhWpi7Tp3pZV_hhRQo-46" value="find all guest lockers" style="rounded=0;whiteSpace=wrap;html=1;" parent="1" vertex="1">
          <mxGeometry x="1430" y="510" width="120" height="60" as="geometry" />
        </mxCell>
        <mxCell id="4zOhWpi7Tp3pZV_hhRQo-47" style="edgeStyle=orthogonalEdgeStyle;rounded=0;orthogonalLoop=1;jettySize=auto;html=1;exitX=0.5;exitY=1;exitDx=0;exitDy=0;entryX=0.5;entryY=0;entryDx=0;entryDy=0;fontColor=#7F00FF;" parent="1" source="4zOhWpi7Tp3pZV_hhRQo-48" target="4zOhWpi7Tp3pZV_hhRQo-50" edge="1">
          <mxGeometry relative="1" as="geometry" />
        </mxCell>
        <mxCell id="4zOhWpi7Tp3pZV_hhRQo-53" style="edgeStyle=orthogonalEdgeStyle;rounded=0;orthogonalLoop=1;jettySize=auto;html=1;exitX=1;exitY=0.5;exitDx=0;exitDy=0;entryX=1;entryY=0.5;entryDx=0;entryDy=0;fontColor=#000000;" parent="1" source="4zOhWpi7Tp3pZV_hhRQo-48" target="4zOhWpi7Tp3pZV_hhRQo-5" edge="1">
          <mxGeometry relative="1" as="geometry">
            <Array as="points">
              <mxPoint x="1680" y="640" />
              <mxPoint x="1680" y="1215" />
            </Array>
          </mxGeometry>
        </mxCell>
        <mxCell id="4zOhWpi7Tp3pZV_hhRQo-48" value="i = 0; i &amp;lt; lockers.length; i++" style="shape=hexagon;perimeter=hexagonPerimeter2;whiteSpace=wrap;html=1;fixedSize=1;" parent="1" vertex="1">
          <mxGeometry x="1404.5" y="600" width="171" height="80" as="geometry" />
        </mxCell>
        <mxCell id="4zOhWpi7Tp3pZV_hhRQo-49" style="edgeStyle=orthogonalEdgeStyle;rounded=0;orthogonalLoop=1;jettySize=auto;html=1;exitX=0;exitY=0.5;exitDx=0;exitDy=0;entryX=0;entryY=0.5;entryDx=0;entryDy=0;" parent="1" source="4zOhWpi7Tp3pZV_hhRQo-50" target="4zOhWpi7Tp3pZV_hhRQo-48" edge="1">
          <mxGeometry relative="1" as="geometry" />
        </mxCell>
        <mxCell id="4zOhWpi7Tp3pZV_hhRQo-50" value="send message&lt;br&gt;&lt;font color=&quot;#0000ff&quot;&gt;&amp;lt;HOTEL_BASE_TOPIC&amp;gt;/&amp;lt;LOCKER_ID&amp;gt;/room/remove&lt;/font&gt;&lt;br&gt;&lt;font color=&quot;#7f00ff&quot;&gt;{ roomId =&amp;gt; guest roomId }&lt;/font&gt;" style="rounded=0;whiteSpace=wrap;html=1;" parent="1" vertex="1">
          <mxGeometry x="1330" y="750" width="320" height="130" as="geometry" />
        </mxCell>
        <mxCell id="4zOhWpi7Tp3pZV_hhRQo-54" style="edgeStyle=orthogonalEdgeStyle;rounded=0;orthogonalLoop=1;jettySize=auto;html=1;exitX=0.5;exitY=1;exitDx=0;exitDy=0;entryX=0.5;entryY=0;entryDx=0;entryDy=0;" parent="1" source="4zOhWpi7Tp3pZV_hhRQo-55" target="4zOhWpi7Tp3pZV_hhRQo-57" edge="1">
          <mxGeometry relative="1" as="geometry">
            <mxPoint x="1920" y="540" as="targetPoint" />
          </mxGeometry>
        </mxCell>
        <mxCell id="4zOhWpi7Tp3pZV_hhRQo-55" value="find all housekeeping lockers" style="rounded=0;whiteSpace=wrap;html=1;" parent="1" vertex="1">
          <mxGeometry x="1860" y="510" width="120" height="60" as="geometry" />
        </mxCell>
        <mxCell id="4zOhWpi7Tp3pZV_hhRQo-56" style="edgeStyle=orthogonalEdgeStyle;rounded=0;orthogonalLoop=1;jettySize=auto;html=1;exitX=0.5;exitY=1;exitDx=0;exitDy=0;entryX=0.5;entryY=0;entryDx=0;entryDy=0;fontColor=#7F00FF;" parent="1" source="4zOhWpi7Tp3pZV_hhRQo-57" target="4zOhWpi7Tp3pZV_hhRQo-59" edge="1">
          <mxGeometry relative="1" as="geometry" />
        </mxCell>
        <mxCell id="4zOhWpi7Tp3pZV_hhRQo-66" style="edgeStyle=orthogonalEdgeStyle;rounded=0;orthogonalLoop=1;jettySize=auto;html=1;exitX=1;exitY=0.5;exitDx=0;exitDy=0;entryX=1;entryY=0.5;entryDx=0;entryDy=0;fontColor=#000000;" parent="1" source="4zOhWpi7Tp3pZV_hhRQo-57" target="4zOhWpi7Tp3pZV_hhRQo-5" edge="1">
          <mxGeometry relative="1" as="geometry">
            <Array as="points">
              <mxPoint x="2100" y="640" />
              <mxPoint x="2100" y="1215" />
            </Array>
          </mxGeometry>
        </mxCell>
        <mxCell id="4zOhWpi7Tp3pZV_hhRQo-57" value="i = 0; i &amp;lt; lockers.length; i++" style="shape=hexagon;perimeter=hexagonPerimeter2;whiteSpace=wrap;html=1;fixedSize=1;" parent="1" vertex="1">
          <mxGeometry x="1834.5" y="600" width="171" height="80" as="geometry" />
        </mxCell>
        <mxCell id="4zOhWpi7Tp3pZV_hhRQo-58" style="edgeStyle=orthogonalEdgeStyle;rounded=0;orthogonalLoop=1;jettySize=auto;html=1;exitX=0;exitY=0.5;exitDx=0;exitDy=0;entryX=0;entryY=0.5;entryDx=0;entryDy=0;" parent="1" source="4zOhWpi7Tp3pZV_hhRQo-59" target="4zOhWpi7Tp3pZV_hhRQo-57" edge="1">
          <mxGeometry relative="1" as="geometry" />
        </mxCell>
        <mxCell id="4zOhWpi7Tp3pZV_hhRQo-59" value="send message&lt;br&gt;&lt;font color=&quot;#0000ff&quot;&gt;&amp;lt;HOTEL_BASE_TOPIC&amp;gt;/&amp;lt;LOCKER_ID&amp;gt;/card/add&lt;/font&gt;&lt;br&gt;&lt;font color=&quot;#7f00ff&quot;&gt;{ cards =&amp;gt; housekeeping cards, cardType =&amp;gt; &#39;housekeeping&#39; }&lt;/font&gt;" style="rounded=0;whiteSpace=wrap;html=1;" parent="1" vertex="1">
          <mxGeometry x="1760" y="750" width="320" height="130" as="geometry" />
        </mxCell>
        <mxCell id="4zOhWpi7Tp3pZV_hhRQo-60" style="edgeStyle=orthogonalEdgeStyle;rounded=0;orthogonalLoop=1;jettySize=auto;html=1;exitX=0.5;exitY=1;exitDx=0;exitDy=0;entryX=0.5;entryY=0;entryDx=0;entryDy=0;" parent="1" source="4zOhWpi7Tp3pZV_hhRQo-61" target="4zOhWpi7Tp3pZV_hhRQo-63" edge="1">
          <mxGeometry relative="1" as="geometry">
            <mxPoint x="2320" y="540" as="targetPoint" />
          </mxGeometry>
        </mxCell>
        <mxCell id="4zOhWpi7Tp3pZV_hhRQo-61" value="find all housekeeping lockers" style="rounded=0;whiteSpace=wrap;html=1;" parent="1" vertex="1">
          <mxGeometry x="2260" y="510" width="120" height="60" as="geometry" />
        </mxCell>
        <mxCell id="4zOhWpi7Tp3pZV_hhRQo-62" style="edgeStyle=orthogonalEdgeStyle;rounded=0;orthogonalLoop=1;jettySize=auto;html=1;exitX=0.5;exitY=1;exitDx=0;exitDy=0;entryX=0.5;entryY=0;entryDx=0;entryDy=0;fontColor=#7F00FF;" parent="1" source="4zOhWpi7Tp3pZV_hhRQo-63" target="4zOhWpi7Tp3pZV_hhRQo-65" edge="1">
          <mxGeometry relative="1" as="geometry" />
        </mxCell>
        <mxCell id="4zOhWpi7Tp3pZV_hhRQo-68" style="edgeStyle=orthogonalEdgeStyle;rounded=0;orthogonalLoop=1;jettySize=auto;html=1;exitX=1;exitY=0.5;exitDx=0;exitDy=0;entryX=1;entryY=0.5;entryDx=0;entryDy=0;fontColor=#000000;" parent="1" source="4zOhWpi7Tp3pZV_hhRQo-63" target="4zOhWpi7Tp3pZV_hhRQo-5" edge="1">
          <mxGeometry relative="1" as="geometry">
            <Array as="points">
              <mxPoint x="2490" y="640" />
              <mxPoint x="2490" y="1215" />
            </Array>
          </mxGeometry>
        </mxCell>
        <mxCell id="4zOhWpi7Tp3pZV_hhRQo-63" value="i = 0; i &amp;lt; lockers.length; i++" style="shape=hexagon;perimeter=hexagonPerimeter2;whiteSpace=wrap;html=1;fixedSize=1;" parent="1" vertex="1">
          <mxGeometry x="2234.5" y="600" width="171" height="80" as="geometry" />
        </mxCell>
        <mxCell id="4zOhWpi7Tp3pZV_hhRQo-64" style="edgeStyle=orthogonalEdgeStyle;rounded=0;orthogonalLoop=1;jettySize=auto;html=1;exitX=0;exitY=0.5;exitDx=0;exitDy=0;entryX=0;entryY=0.5;entryDx=0;entryDy=0;" parent="1" source="4zOhWpi7Tp3pZV_hhRQo-65" target="4zOhWpi7Tp3pZV_hhRQo-63" edge="1">
          <mxGeometry relative="1" as="geometry" />
        </mxCell>
        <mxCell id="4zOhWpi7Tp3pZV_hhRQo-65" value="send message&lt;br&gt;&lt;font color=&quot;#0000ff&quot;&gt;&amp;lt;HOTEL_BASE_TOPIC&amp;gt;/&amp;lt;LOCKER_ID&amp;gt;/card/remove&lt;/font&gt;&lt;br&gt;&lt;font color=&quot;#7f00ff&quot;&gt;{ cards =&amp;gt; housekeeping cards to remove }&lt;/font&gt;" style="rounded=0;whiteSpace=wrap;html=1;" parent="1" vertex="1">
          <mxGeometry x="2160" y="750" width="320" height="130" as="geometry" />
        </mxCell>
      </root>
    </mxGraphModel>
  </diagram>
  <diagram id="bPc7SOpU48cPwJIChXDZ" name="Notification Manager">
    <mxGraphModel dx="898" dy="614" grid="1" gridSize="10" guides="1" tooltips="1" connect="1" arrows="1" fold="1" page="1" pageScale="1" pageWidth="1200" pageHeight="1600" math="0" shadow="0">
      <root>
        <mxCell id="0" />
        <mxCell id="1" parent="0" />
        <mxCell id="cWav6fK2rOKFVmu4aVDo-2" value="" style="endArrow=classic;html=1;rounded=0;exitX=0.5;exitY=1;exitDx=0;exitDy=0;entryX=0.5;entryY=0;entryDx=0;entryDy=0;" edge="1" parent="1" source="GHDKCQWZ0pFbO1gZQswi-2" target="TIC1HCiOCiet_GitPyAt-12">
          <mxGeometry relative="1" as="geometry">
            <mxPoint x="240" y="130" as="sourcePoint" />
            <mxPoint x="270" y="280" as="targetPoint" />
          </mxGeometry>
        </mxCell>
        <mxCell id="cWav6fK2rOKFVmu4aVDo-3" value="" style="shape=message;html=1;outlineConnect=0;" vertex="1" parent="cWav6fK2rOKFVmu4aVDo-2">
          <mxGeometry width="20" height="14" relative="1" as="geometry">
            <mxPoint x="-10" y="-7" as="offset" />
          </mxGeometry>
        </mxCell>
        <mxCell id="GHDKCQWZ0pFbO1gZQswi-15" value="notification.v1.[HOTEL_ID].[MSG_TYPE]" style="edgeLabel;html=1;align=center;verticalAlign=middle;resizable=0;points=[];" vertex="1" connectable="0" parent="cWav6fK2rOKFVmu4aVDo-2">
          <mxGeometry x="-0.56" y="2" relative="1" as="geometry">
            <mxPoint as="offset" />
          </mxGeometry>
        </mxCell>
        <mxCell id="cWav6fK2rOKFVmu4aVDo-12" value="NotificationMessage" style="swimlane;fontStyle=0;childLayout=stackLayout;horizontal=1;startSize=30;horizontalStack=0;resizeParent=1;resizeParentMax=0;resizeLast=0;collapsible=1;marginBottom=0;" vertex="1" parent="1">
          <mxGeometry x="115" y="1120" width="250" height="238" as="geometry" />
        </mxCell>
        <mxCell id="TIC1HCiOCiet_GitPyAt-6" value="objectId: string" style="text;align=left;verticalAlign=top;spacingLeft=4;spacingRight=4;overflow=hidden;rotatable=0;points=[[0,0.5],[1,0.5]];portConstraint=eastwest;" vertex="1" parent="cWav6fK2rOKFVmu4aVDo-12">
          <mxGeometry y="30" width="250" height="26" as="geometry" />
        </mxCell>
        <mxCell id="TIC1HCiOCiet_GitPyAt-7" value="ACL: ACL (any user)" style="text;align=left;verticalAlign=top;spacingLeft=4;spacingRight=4;overflow=hidden;rotatable=0;points=[[0,0.5],[1,0.5]];portConstraint=eastwest;rounded=0;shadow=0;html=0;" vertex="1" parent="cWav6fK2rOKFVmu4aVDo-12">
          <mxGeometry y="56" width="250" height="26" as="geometry" />
        </mxCell>
        <mxCell id="TIC1HCiOCiet_GitPyAt-11" value="type: string" style="text;align=left;verticalAlign=top;spacingLeft=4;spacingRight=4;overflow=hidden;rotatable=0;points=[[0,0.5],[1,0.5]];portConstraint=eastwest;rounded=0;shadow=0;html=0;" vertex="1" parent="cWav6fK2rOKFVmu4aVDo-12">
          <mxGeometry y="82" width="250" height="26" as="geometry" />
        </mxCell>
        <mxCell id="TIC1HCiOCiet_GitPyAt-8" value="name: string" style="text;align=left;verticalAlign=top;spacingLeft=4;spacingRight=4;overflow=hidden;rotatable=0;points=[[0,0.5],[1,0.5]];portConstraint=eastwest;rounded=0;shadow=0;html=0;" vertex="1" parent="cWav6fK2rOKFVmu4aVDo-12">
          <mxGeometry y="108" width="250" height="22" as="geometry" />
        </mxCell>
        <mxCell id="TIC1HCiOCiet_GitPyAt-9" value="text: Object&lt;{ [lang: string]: string }&gt;" style="text;align=left;verticalAlign=top;spacingLeft=4;spacingRight=4;overflow=hidden;rotatable=0;points=[[0,0.5],[1,0.5]];portConstraint=eastwest;rounded=0;shadow=0;html=0;" vertex="1" parent="cWav6fK2rOKFVmu4aVDo-12">
          <mxGeometry y="130" width="250" height="26" as="geometry" />
        </mxCell>
        <mxCell id="TIC1HCiOCiet_GitPyAt-10" value="group: Pointer&lt;NotificationGroup&gt;" style="text;align=left;verticalAlign=top;spacingLeft=4;spacingRight=4;overflow=hidden;rotatable=0;points=[[0,0.5],[1,0.5]];portConstraint=eastwest;rounded=0;shadow=0;html=0;" vertex="1" parent="cWav6fK2rOKFVmu4aVDo-12">
          <mxGeometry y="156" width="250" height="82" as="geometry" />
        </mxCell>
        <mxCell id="TIC1HCiOCiet_GitPyAt-24" style="edgeStyle=orthogonalEdgeStyle;rounded=0;orthogonalLoop=1;jettySize=auto;html=1;exitX=0.5;exitY=1;exitDx=0;exitDy=0;entryX=0.5;entryY=0;entryDx=0;entryDy=0;" edge="1" parent="1" source="TIC1HCiOCiet_GitPyAt-12" target="TIC1HCiOCiet_GitPyAt-14">
          <mxGeometry relative="1" as="geometry">
            <mxPoint x="240" y="310" as="targetPoint" />
          </mxGeometry>
        </mxCell>
        <mxCell id="TIC1HCiOCiet_GitPyAt-12" value="get mail from Parse by type" style="rounded=0;whiteSpace=wrap;html=1;" vertex="1" parent="1">
          <mxGeometry x="180" y="220" width="120" height="60" as="geometry" />
        </mxCell>
        <mxCell id="TIC1HCiOCiet_GitPyAt-20" style="edgeStyle=orthogonalEdgeStyle;rounded=0;orthogonalLoop=1;jettySize=auto;html=1;exitX=0.5;exitY=1;exitDx=0;exitDy=0;entryX=0.5;entryY=0;entryDx=0;entryDy=0;" edge="1" parent="1" source="TIC1HCiOCiet_GitPyAt-14" target="TIC1HCiOCiet_GitPyAt-15">
          <mxGeometry relative="1" as="geometry" />
        </mxCell>
        <mxCell id="TIC1HCiOCiet_GitPyAt-14" value="get users from mail list" style="rounded=0;whiteSpace=wrap;html=1;" vertex="1" parent="1">
          <mxGeometry x="180" y="350" width="120" height="60" as="geometry" />
        </mxCell>
        <mxCell id="TIC1HCiOCiet_GitPyAt-17" style="edgeStyle=orthogonalEdgeStyle;rounded=0;orthogonalLoop=1;jettySize=auto;html=1;exitX=0.5;exitY=1;exitDx=0;exitDy=0;entryX=0.5;entryY=0;entryDx=0;entryDy=0;" edge="1" parent="1" source="TIC1HCiOCiet_GitPyAt-15" target="TIC1HCiOCiet_GitPyAt-16">
          <mxGeometry relative="1" as="geometry" />
        </mxCell>
        <mxCell id="GHDKCQWZ0pFbO1gZQswi-8" style="edgeStyle=orthogonalEdgeStyle;rounded=0;orthogonalLoop=1;jettySize=auto;html=1;exitX=1;exitY=0.5;exitDx=0;exitDy=0;entryX=0.5;entryY=0;entryDx=0;entryDy=0;" edge="1" parent="1" source="TIC1HCiOCiet_GitPyAt-15" target="GHDKCQWZ0pFbO1gZQswi-4">
          <mxGeometry relative="1" as="geometry" />
        </mxCell>
        <mxCell id="X_Mah907FJifGTQT6jMz-1" value="Array&amp;lt;{ channel: { type: string, ...meta }, text: string }&amp;gt;" style="edgeLabel;html=1;align=center;verticalAlign=middle;resizable=0;points=[];" vertex="1" connectable="0" parent="GHDKCQWZ0pFbO1gZQswi-8">
          <mxGeometry x="0.1957" y="-1" relative="1" as="geometry">
            <mxPoint x="11" y="39" as="offset" />
          </mxGeometry>
        </mxCell>
        <mxCell id="TIC1HCiOCiet_GitPyAt-15" value="users" style="shape=hexagon;perimeter=hexagonPerimeter2;whiteSpace=wrap;html=1;fixedSize=1;" vertex="1" parent="1">
          <mxGeometry x="180" y="480" width="120" height="80" as="geometry" />
        </mxCell>
        <mxCell id="GHDKCQWZ0pFbO1gZQswi-3" style="edgeStyle=orthogonalEdgeStyle;rounded=0;orthogonalLoop=1;jettySize=auto;html=1;exitX=0.5;exitY=1;exitDx=0;exitDy=0;entryX=0;entryY=0.5;entryDx=0;entryDy=0;" edge="1" parent="1" source="TIC1HCiOCiet_GitPyAt-16" target="TIC1HCiOCiet_GitPyAt-15">
          <mxGeometry relative="1" as="geometry">
            <Array as="points">
              <mxPoint x="240" y="760" />
              <mxPoint x="80" y="760" />
              <mxPoint x="80" y="520" />
            </Array>
          </mxGeometry>
        </mxCell>
        <mxCell id="TIC1HCiOCiet_GitPyAt-16" value="check user hotel, get message according to user&#39;s language and determine the message delivery channel according to the user profile" style="rounded=0;whiteSpace=wrap;html=1;" vertex="1" parent="1">
          <mxGeometry x="130" y="630" width="220" height="110" as="geometry" />
        </mxCell>
        <mxCell id="RoLQNFGXTRI1Y-3NTuC4-1" value="NotificationGroup" style="swimlane;fontStyle=2;align=center;verticalAlign=top;childLayout=stackLayout;horizontal=1;startSize=26;horizontalStack=0;resizeParent=1;resizeLast=0;collapsible=1;marginBottom=0;rounded=0;shadow=0;strokeWidth=1;" vertex="1" parent="1">
          <mxGeometry x="400" y="1120" width="230" height="140" as="geometry">
            <mxRectangle x="220" y="120" width="160" height="26" as="alternateBounds" />
          </mxGeometry>
        </mxCell>
        <mxCell id="RoLQNFGXTRI1Y-3NTuC4-2" value="objectId: string" style="text;align=left;verticalAlign=top;spacingLeft=4;spacingRight=4;overflow=hidden;rotatable=0;points=[[0,0.5],[1,0.5]];portConstraint=eastwest;" vertex="1" parent="RoLQNFGXTRI1Y-3NTuC4-1">
          <mxGeometry y="26" width="230" height="26" as="geometry" />
        </mxCell>
        <mxCell id="RoLQNFGXTRI1Y-3NTuC4-3" value="ACL: ACL (any user)" style="text;align=left;verticalAlign=top;spacingLeft=4;spacingRight=4;overflow=hidden;rotatable=0;points=[[0,0.5],[1,0.5]];portConstraint=eastwest;rounded=0;shadow=0;html=0;" vertex="1" parent="RoLQNFGXTRI1Y-3NTuC4-1">
          <mxGeometry y="52" width="230" height="26" as="geometry" />
        </mxCell>
        <mxCell id="RoLQNFGXTRI1Y-3NTuC4-4" value="name: string" style="text;align=left;verticalAlign=top;spacingLeft=4;spacingRight=4;overflow=hidden;rotatable=0;points=[[0,0.5],[1,0.5]];portConstraint=eastwest;rounded=0;shadow=0;html=0;" vertex="1" parent="RoLQNFGXTRI1Y-3NTuC4-1">
          <mxGeometry y="78" width="230" height="26" as="geometry" />
        </mxCell>
        <mxCell id="RoLQNFGXTRI1Y-3NTuC4-5" value="users: Array&lt;NotificationUser&gt;" style="text;align=left;verticalAlign=top;spacingLeft=4;spacingRight=4;overflow=hidden;rotatable=0;points=[[0,0.5],[1,0.5]];portConstraint=eastwest;rounded=0;shadow=0;html=0;" vertex="1" parent="RoLQNFGXTRI1Y-3NTuC4-1">
          <mxGeometry y="104" width="230" height="26" as="geometry" />
        </mxCell>
        <mxCell id="CzUQpkDfpi-kIsUGzGOJ-1" value="NotificationUser" style="swimlane;fontStyle=2;align=center;verticalAlign=top;childLayout=stackLayout;horizontal=1;startSize=26;horizontalStack=0;resizeParent=1;resizeLast=0;collapsible=1;marginBottom=0;rounded=0;shadow=0;strokeWidth=1;" vertex="1" parent="1">
          <mxGeometry x="670" y="1120" width="230" height="370" as="geometry">
            <mxRectangle x="220" y="120" width="160" height="26" as="alternateBounds" />
          </mxGeometry>
        </mxCell>
        <mxCell id="CzUQpkDfpi-kIsUGzGOJ-2" value="objectId: string" style="text;align=left;verticalAlign=top;spacingLeft=4;spacingRight=4;overflow=hidden;rotatable=0;points=[[0,0.5],[1,0.5]];portConstraint=eastwest;" vertex="1" parent="CzUQpkDfpi-kIsUGzGOJ-1">
          <mxGeometry y="26" width="230" height="26" as="geometry" />
        </mxCell>
        <mxCell id="CzUQpkDfpi-kIsUGzGOJ-3" value="ACL: ACL (some hotel or several hotels)" style="text;align=left;verticalAlign=top;spacingLeft=4;spacingRight=4;overflow=hidden;rotatable=0;points=[[0,0.5],[1,0.5]];portConstraint=eastwest;rounded=0;shadow=0;html=0;" vertex="1" parent="CzUQpkDfpi-kIsUGzGOJ-1">
          <mxGeometry y="52" width="230" height="26" as="geometry" />
        </mxCell>
        <mxCell id="CzUQpkDfpi-kIsUGzGOJ-4" value="name: string" style="text;align=left;verticalAlign=top;spacingLeft=4;spacingRight=4;overflow=hidden;rotatable=0;points=[[0,0.5],[1,0.5]];portConstraint=eastwest;rounded=0;shadow=0;html=0;" vertex="1" parent="CzUQpkDfpi-kIsUGzGOJ-1">
          <mxGeometry y="78" width="230" height="26" as="geometry" />
        </mxCell>
        <mxCell id="CzUQpkDfpi-kIsUGzGOJ-5" value="email: string" style="text;align=left;verticalAlign=top;spacingLeft=4;spacingRight=4;overflow=hidden;rotatable=0;points=[[0,0.5],[1,0.5]];portConstraint=eastwest;rounded=0;shadow=0;html=0;" vertex="1" parent="CzUQpkDfpi-kIsUGzGOJ-1">
          <mxGeometry y="104" width="230" height="26" as="geometry" />
        </mxCell>
        <mxCell id="CzUQpkDfpi-kIsUGzGOJ-6" value="phone: string" style="text;align=left;verticalAlign=top;spacingLeft=4;spacingRight=4;overflow=hidden;rotatable=0;points=[[0,0.5],[1,0.5]];portConstraint=eastwest;rounded=0;shadow=0;html=0;" vertex="1" parent="CzUQpkDfpi-kIsUGzGOJ-1">
          <mxGeometry y="130" width="230" height="26" as="geometry" />
        </mxCell>
        <mxCell id="CzUQpkDfpi-kIsUGzGOJ-7" value="telegramId: string" style="text;align=left;verticalAlign=top;spacingLeft=4;spacingRight=4;overflow=hidden;rotatable=0;points=[[0,0.5],[1,0.5]];portConstraint=eastwest;rounded=0;shadow=0;html=0;" vertex="1" parent="CzUQpkDfpi-kIsUGzGOJ-1">
          <mxGeometry y="156" width="230" height="26" as="geometry" />
        </mxCell>
        <mxCell id="CzUQpkDfpi-kIsUGzGOJ-8" value="emailAllowed: boolean" style="text;align=left;verticalAlign=top;spacingLeft=4;spacingRight=4;overflow=hidden;rotatable=0;points=[[0,0.5],[1,0.5]];portConstraint=eastwest;rounded=0;shadow=0;html=0;" vertex="1" parent="CzUQpkDfpi-kIsUGzGOJ-1">
          <mxGeometry y="182" width="230" height="26" as="geometry" />
        </mxCell>
        <mxCell id="CzUQpkDfpi-kIsUGzGOJ-9" value="smsAllowed: boolean" style="text;align=left;verticalAlign=top;spacingLeft=4;spacingRight=4;overflow=hidden;rotatable=0;points=[[0,0.5],[1,0.5]];portConstraint=eastwest;rounded=0;shadow=0;html=0;" vertex="1" parent="CzUQpkDfpi-kIsUGzGOJ-1">
          <mxGeometry y="208" width="230" height="26" as="geometry" />
        </mxCell>
        <mxCell id="CzUQpkDfpi-kIsUGzGOJ-10" value="telegramAllowed: boolean" style="text;align=left;verticalAlign=top;spacingLeft=4;spacingRight=4;overflow=hidden;rotatable=0;points=[[0,0.5],[1,0.5]];portConstraint=eastwest;rounded=0;shadow=0;html=0;" vertex="1" parent="CzUQpkDfpi-kIsUGzGOJ-1">
          <mxGeometry y="234" width="230" height="26" as="geometry" />
        </mxCell>
        <mxCell id="CzUQpkDfpi-kIsUGzGOJ-11" value="lang: string" style="text;align=left;verticalAlign=top;spacingLeft=4;spacingRight=4;overflow=hidden;rotatable=0;points=[[0,0.5],[1,0.5]];portConstraint=eastwest;rounded=0;shadow=0;html=0;" vertex="1" parent="CzUQpkDfpi-kIsUGzGOJ-1">
          <mxGeometry y="260" width="230" height="26" as="geometry" />
        </mxCell>
        <mxCell id="CzUQpkDfpi-kIsUGzGOJ-12" value="notes: string" style="text;align=left;verticalAlign=top;spacingLeft=4;spacingRight=4;overflow=hidden;rotatable=0;points=[[0,0.5],[1,0.5]];portConstraint=eastwest;rounded=0;shadow=0;html=0;" vertex="1" parent="CzUQpkDfpi-kIsUGzGOJ-1">
          <mxGeometry y="286" width="230" height="26" as="geometry" />
        </mxCell>
        <mxCell id="CzUQpkDfpi-kIsUGzGOJ-13" value="groups: Array&lt;NotificationGroup&gt;" style="text;align=left;verticalAlign=top;spacingLeft=4;spacingRight=4;overflow=hidden;rotatable=0;points=[[0,0.5],[1,0.5]];portConstraint=eastwest;rounded=0;shadow=0;html=0;" vertex="1" parent="CzUQpkDfpi-kIsUGzGOJ-1">
          <mxGeometry y="312" width="230" height="26" as="geometry" />
        </mxCell>
        <mxCell id="CzUQpkDfpi-kIsUGzGOJ-14" value="hotels: Array&lt;Hotel&gt;" style="text;align=left;verticalAlign=top;spacingLeft=4;spacingRight=4;overflow=hidden;rotatable=0;points=[[0,0.5],[1,0.5]];portConstraint=eastwest;rounded=0;shadow=0;html=0;" vertex="1" parent="CzUQpkDfpi-kIsUGzGOJ-1">
          <mxGeometry y="338" width="230" height="26" as="geometry" />
        </mxCell>
        <mxCell id="GHDKCQWZ0pFbO1gZQswi-1" value="Примеры сообщений:&lt;br&gt;- закончились чистые полотенца (meydan) - notification.v1.meydan.locker/no-clean-towels&lt;br&gt;- переполнена корзина с грязными полотенцами (herods-ta) - notification.v1.herods-ta.locker/full-dirty-towels&lt;br&gt;- микросервис не работает - notification.v1.root.locker-namager/unexpected-error" style="text;html=1;align=left;verticalAlign=middle;resizable=0;points=[];autosize=1;strokeColor=none;fillColor=none;" vertex="1" parent="1">
          <mxGeometry x="380" y="120" width="610" height="60" as="geometry" />
        </mxCell>
        <mxCell id="GHDKCQWZ0pFbO1gZQswi-2" value="Locker Manager" style="ellipse;whiteSpace=wrap;html=1;" vertex="1" parent="1">
          <mxGeometry x="180" y="40" width="120" height="80" as="geometry" />
        </mxCell>
        <mxCell id="GHDKCQWZ0pFbO1gZQswi-4" value="switch by channel type" style="swimlane;fontStyle=0;childLayout=stackLayout;horizontal=1;startSize=30;horizontalStack=0;resizeParent=1;resizeParentMax=0;resizeLast=0;collapsible=1;marginBottom=0;" vertex="1" parent="1">
          <mxGeometry x="450" y="770" width="140" height="120" as="geometry" />
        </mxCell>
        <mxCell id="GHDKCQWZ0pFbO1gZQswi-5" value="sms" style="text;strokeColor=none;fillColor=none;align=left;verticalAlign=middle;spacingLeft=4;spacingRight=4;overflow=hidden;points=[[0,0.5],[1,0.5]];portConstraint=eastwest;rotatable=0;" vertex="1" parent="GHDKCQWZ0pFbO1gZQswi-4">
          <mxGeometry y="30" width="140" height="30" as="geometry" />
        </mxCell>
        <mxCell id="GHDKCQWZ0pFbO1gZQswi-6" value="telegram" style="text;strokeColor=none;fillColor=none;align=left;verticalAlign=middle;spacingLeft=4;spacingRight=4;overflow=hidden;points=[[0,0.5],[1,0.5]];portConstraint=eastwest;rotatable=0;" vertex="1" parent="GHDKCQWZ0pFbO1gZQswi-4">
          <mxGeometry y="60" width="140" height="30" as="geometry" />
        </mxCell>
        <mxCell id="GHDKCQWZ0pFbO1gZQswi-7" value="email" style="text;strokeColor=none;fillColor=none;align=left;verticalAlign=middle;spacingLeft=4;spacingRight=4;overflow=hidden;points=[[0,0.5],[1,0.5]];portConstraint=eastwest;rotatable=0;" vertex="1" parent="GHDKCQWZ0pFbO1gZQswi-4">
          <mxGeometry y="90" width="140" height="30" as="geometry" />
        </mxCell>
        <mxCell id="GHDKCQWZ0pFbO1gZQswi-9" value="SMS Sender" style="ellipse;whiteSpace=wrap;html=1;" vertex="1" parent="1">
          <mxGeometry x="730" y="700" width="120" height="80" as="geometry" />
        </mxCell>
        <mxCell id="GHDKCQWZ0pFbO1gZQswi-10" value="Telegram Sender" style="ellipse;whiteSpace=wrap;html=1;" vertex="1" parent="1">
          <mxGeometry x="730" y="805" width="120" height="80" as="geometry" />
        </mxCell>
        <mxCell id="GHDKCQWZ0pFbO1gZQswi-11" value="Email Sender" style="ellipse;whiteSpace=wrap;html=1;" vertex="1" parent="1">
          <mxGeometry x="730" y="910" width="120" height="80" as="geometry" />
        </mxCell>
        <mxCell id="GHDKCQWZ0pFbO1gZQswi-12" style="edgeStyle=orthogonalEdgeStyle;rounded=0;orthogonalLoop=1;jettySize=auto;html=1;exitX=1;exitY=0.5;exitDx=0;exitDy=0;entryX=0;entryY=0.5;entryDx=0;entryDy=0;" edge="1" parent="1" source="GHDKCQWZ0pFbO1gZQswi-5" target="GHDKCQWZ0pFbO1gZQswi-9">
          <mxGeometry relative="1" as="geometry" />
        </mxCell>
        <mxCell id="GHDKCQWZ0pFbO1gZQswi-13" style="edgeStyle=orthogonalEdgeStyle;rounded=0;orthogonalLoop=1;jettySize=auto;html=1;exitX=1;exitY=0.5;exitDx=0;exitDy=0;entryX=0;entryY=0.5;entryDx=0;entryDy=0;" edge="1" parent="1" source="GHDKCQWZ0pFbO1gZQswi-6" target="GHDKCQWZ0pFbO1gZQswi-10">
          <mxGeometry relative="1" as="geometry" />
        </mxCell>
        <mxCell id="GHDKCQWZ0pFbO1gZQswi-14" style="edgeStyle=orthogonalEdgeStyle;rounded=0;orthogonalLoop=1;jettySize=auto;html=1;exitX=1;exitY=0.5;exitDx=0;exitDy=0;entryX=0;entryY=0.5;entryDx=0;entryDy=0;" edge="1" parent="1" source="GHDKCQWZ0pFbO1gZQswi-7" target="GHDKCQWZ0pFbO1gZQswi-11">
          <mxGeometry relative="1" as="geometry" />
        </mxCell>
      </root>
    </mxGraphModel>
  </diagram>
</mxfile>
